<svg xmlns="http://www.w3.org/2000/svg" width="48" height="48" viewBox="0 0 48 48">
    <g transform="translate(0, 12)">
        <path d="M25.724 22.67a5.577 5.577 0 1 1 0-11.154 5.577 5.577 0 0 1 0 11.153zm-16.426 0a5.577 5.577 0 1 1 0-11.154 5.577 5.577 0 0 1 0 11.153zM25.724 7.794a9.294 9.294 0 0 0-8.213 4.94 9.294 9.294 0 0 0-8.213-4.94A9.256 9.256 0 0 0 3.72 9.653V1.82H3.72a1.86 1.86 0 0 0-3.72 0v15.425h.004c.082 5.064 4.21 9.144 9.294 9.144a9.295 9.295 0 0 0 8.213-4.94 9.298 9.298 0 1 0 8.213-13.655zm21.805 15.67l-4.762-6.366 4.762-6.365h-.001A1.86 1.86 0 0 0 44.554 8.5l-4.11 5.494-4.11-5.494a1.86 1.86 0 0 0-2.974 2.234l4.76 6.365-4.76 6.365a1.86 1.86 0 0 0 2.974 2.234l4.11-5.493 4.11 5.494a1.86 1.86 0 0 0 2.974-2.234z"
              fill="#0FA6F3" fill-rule="evenodd"></path>
    </g>
</svg>
