<svg xmlns="http://www.w3.org/2000/svg" width="48" height="48" viewBox="0 0 48 48">
    <g opacity=".8" fill="#1A1A1A">
        <path d="M23.998 20.733c-.904 0-1.764.187-2.547.517a2.72 2.72 0 1 1-3.467 3.468 6.529 6.529 0 1 0 12.54 2.544 6.528 6.528 0 0 0-6.526-6.529z"></path>
        <path d="M32.814 13.1c-4.193-2.607-9.438-3.275-14.253-1.609l.004-.004a13.878 13.878 0 0 1 8.195-2.662c1.71 0 3.337.266 4.851.834.098.033.227.058.286.058.36 0 .625-.248.628-.601a.78.78 0 0 0-.27-.578c-4.006-3.688-8.26-5.209-8.26-5.209C14.502 7.123 7.521 16.308 7.319 26.801a16.594 16.594 0 0 0 2.231 8.803 16.672 16.672 0 0 0 3.498 4.253 13.871 13.871 0 0 1-6.401-5.767c-.856-1.482-1.442-3.025-1.706-4.617a.99.99 0 0 0-.092-.277c-.179-.314-.527-.418-.834-.244a.778.778 0 0 0-.363.523c-1.194 5.313-.384 9.758-.384 9.758 8.152 6.416 19.815 7.82 29.068 2.479a16.65 16.65 0 0 0 8.037-11.271l.001.008a13.866 13.866 0 0 1-1.792 8.43c-.854 1.48-1.899 2.76-3.146 3.785a.957.957 0 0 0-.195.217c-.178.312-.098.67.205.845a.784.784 0 0 0 .635.056c5.197-1.624 8.646-4.55 8.646-4.55 1.456-10.091-2.978-20.699-11.913-26.132zm-8.816 25.043c-7.613 0-13.783-5.335-13.783-11.918 0-.702.075-1.39.209-2.059 2.86-2.933 7.868-4.881 13.574-4.881 5.703 0 10.71 1.948 13.57 4.881.137.669.21 1.356.21 2.059 0 6.583-6.169 11.918-13.78 11.918z"></path>
    </g>
</svg>
