<svg xmlns="http://www.w3.org/2000/svg" width="48" height="48" viewBox="0 0 48 48">
    <defs>
        <style>.bbcls-1 {
            fill: #1f5182
            }</style>
    </defs>
    <title>logo-icon</title>
    <path class="bbcls-1"
          d="M14.156 3.397c-2.334 0-3.793 2.528-2.626 4.55 1.167 2.022 4.086 2.022 5.253 0a3.033 3.033 0 0 0-2.627-4.55zM34.094 3.397c-2.335 0-3.794 2.528-2.626 4.55 1.167 2.022 4.085 2.022 5.252 0a3.034 3.034 0 0 0-2.626-4.55zM24.125.619c-2.334 0-3.794 2.527-2.626 4.549 1.166 2.022 4.087 2.022 5.253 0A3.032 3.032 0 0 0 24.125.619zM41.282 11.85a.946.946 0 0 0-.589-.195l-.336.055a46.886 46.886 0 0 1-6.067 1.826c-.385.086-.7.36-.842.73-1.376 3.79-4.942 7.441-8.65 11.233a.979.979 0 0 1-.673.336.957.957 0 0 1-.702-.336c-3.707-3.792-7.271-7.387-8.648-11.206a1.185 1.185 0 0 0-.843-.73 47.05 47.05 0 0 1-6.066-1.853l-.336-.055a.923.923 0 0 0-.562.195.954.954 0 0 0-.365.842c.308 3.175 1.573 6.262 3.819 9.491 2.245 3.231 4.885 5.87 7.553 8.594 4.915 5.028 9.576 9.772 9.997 15.276a.956.956 0 0 0 .955.871h5.785a.956.956 0 0 0 .955-1.011c-.168-3.678-1.573-7.357-4.241-11.261a36.324 36.324 0 0 0-1.796-2.388.699.699 0 0 1 .056-.898l.588-.589c2.668-2.724 5.45-5.56 7.555-8.594 2.106-3.031 3.51-6.316 3.818-9.491a.979.979 0 0 0-.365-.842zM17.918 35.074a.87.87 0 0 0-.673-.282.955.955 0 0 0-.785.451c-2.443 3.705-3.709 7.215-3.876 10.727a.954.954 0 0 0 .955 1.01h5.785a.956.956 0 0 0 .955-.9 12.81 12.81 0 0 1 1.6-5.193 1.35 1.35 0 0 0-.112-1.433 53.535 53.535 0 0 0-3.849-4.38z"></path>
    <path class="bbcls-1"
          d="M24.125 14.715c1.826 0 2.865-.113 3.23-.113a.87.87 0 0 1 .871.87.963.963 0 0 1-.087.366 15.37 15.37 0 0 1-3.367 4.943.937.937 0 0 1-.676.253.932.932 0 0 1-.673-.253 15.361 15.361 0 0 1-3.368-4.943.925.925 0 0 1-.085-.366c0-.48.389-.87.87-.87.364 0 1.432.113 3.229.113z"></path>
</svg>
