<svg xmlns="http://www.w3.org/2000/svg" width="48" height="48" viewBox="0 0 48 48">
    <path fill="#F5B400"
          d="M44 22c0 1.1-.9 2-2 2H6c-1.1 0-2-.9-2-2V6c0-1.1.9-2 2-2h11c1.1 0 2.562.703 3.249 1.562l1.502 1.877C22.438 8.297 23.9 9 25 9h17c1.1 0 2 .9 2 2v11z"></path>
    <path fill="#E6E6E6" d="M3 11h42v4H3z"></path>
    <path fill="#F2F2F2" d="M2 13h44v4H2z"></path>
    <path fill="#FFE167"
          d="M45.206 42.011C45.093 43.104 44.1 44 43 44H5c-1.1 0-2.093-.896-2.206-1.989L.206 16.989C.093 15.896.9 15 2 15h44c1.1 0 1.907.896 1.794 1.989l-2.588 25.022z"></path>
    <g>
        <path fill="#F2F2F2"
              d="M43-5c0 2.75-2.25 5-5 5H10C7.25 0 5-2.25 5-5v-27c0-2.75 2.25-5 5-5h28c2.75 0 5 2.25 5 5v27z"></path>
    </g>
</svg>
