<svg xmlns="http://www.w3.org/2000/svg" width="24" height="24" viewBox="0 0 24 24">
    <path fill="#000" fill-rule="evenodd" d="M3 3.99c0-.546.451-.99.99-.99h4.02c.546 0 .99.444.99 1a1 1 0 0 1-1.01 1H5v2.99a1 1 0 0 1-2 .019V3.991zm18 0v4.02a1 1 0 0 1-2-.02V5h-2.99A1 1 0 0 1 15 4c0-.556.444-1 .99-1h4.02c.539 0 .99.444.99.99zM3 20.01v-4.02a1 1 0 0 1 2 .02V19h2.99A1 1 0 0 1 9 20c0 .556-.444 1-.99 1H3.99a.996.996 0 0 1-.99-.99zm18 0c0 .546-.451.99-.99.99h-4.02a.993.993 0 0 1-.99-1 1 1 0 0 1 1.01-1H19v-2.99a1 1 0 0 1 2-.019v4.018z"/>
</svg>
