<svg xmlns="http://www.w3.org/2000/svg" width="24" height="24" viewBox="0 0 24 24">
    <path fill="#000" fill-rule="evenodd" d="M3 4.01C3 3.451 3.443 3 4.01 3h1.98C6.549 3 7 3.443 7 4.01v1.98C7 6.549 6.557 7 5.99 7H4.01C3.451 7 3 6.557 3 5.99V4.01zm0 7c0-.558.443-1.01 1.01-1.01h1.98c.558 0 1.01.443 1.01 1.01v1.98C7 13.549 6.557 14 5.99 14H4.01C3.451 14 3 13.557 3 12.99v-1.98zm0 7c0-.558.443-1.01 1.01-1.01h1.98c.558 0 1.01.443 1.01 1.01v1.98C7 20.549 6.557 21 5.99 21H4.01C3.451 21 3 20.557 3 19.99v-1.98zm7-14c0-.558.443-1.01 1.01-1.01h1.98c.558 0 1.01.443 1.01 1.01v1.98C14 6.549 13.557 7 12.99 7h-1.98C10.451 7 10 6.557 10 5.99V4.01zm0 7c0-.558.443-1.01 1.01-1.01h1.98c.558 0 1.01.443 1.01 1.01v1.98c0 .558-.443 1.01-1.01 1.01h-1.98c-.558 0-1.01-.443-1.01-1.01v-1.98zm0 7c0-.558.443-1.01 1.01-1.01h1.98c.558 0 1.01.443 1.01 1.01v1.98c0 .558-.443 1.01-1.01 1.01h-1.98c-.558 0-1.01-.443-1.01-1.01v-1.98zm7-14c0-.558.443-1.01 1.01-1.01h1.98c.558 0 1.01.443 1.01 1.01v1.98C21 6.549 20.557 7 19.99 7h-1.98C17.451 7 17 6.557 17 5.99V4.01zm0 7c0-.558.443-1.01 1.01-1.01h1.98c.558 0 1.01.443 1.01 1.01v1.98c0 .558-.443 1.01-1.01 1.01h-1.98c-.558 0-1.01-.443-1.01-1.01v-1.98zm0 7c0-.558.443-1.01 1.01-1.01h1.98c.558 0 1.01.443 1.01 1.01v1.98c0 .558-.443 1.01-1.01 1.01h-1.98c-.558 0-1.01-.443-1.01-1.01v-1.98z"/>
</svg>
