<svg xmlns="http://www.w3.org/2000/svg" width="48" height="48" viewBox="0 0 48 48">
    <path fill="#F06" d="M37 10c0-1.1.9-2 2-2h6c1.1 0 2 .9 2 2v35c0 1.1-.9 2-2 2h-6c-1.1 0-2-.9-2-2V10z"></path>
    <path fill="#C0C" d="M25 3c0-1.1.9-2 2-2h6c1.1 0 2 .9 2 2v42c0 1.1-.9 2-2 2h-6c-1.1 0-2-.9-2-2V3z"></path>
    <path fill="#90C" d="M13 17c0-1.1.9-2 2-2h6c1.1 0 2 .9 2 2v28c0 1.1-.9 2-2 2h-6c-1.1 0-2-.9-2-2V17z"></path>
    <path fill="#60C" d="M1 29c0-1.1.9-2 2-2h6c1.1 0 2 .9 2 2v16c0 1.1-.9 2-2 2H3c-1.1 0-2-.9-2-2V29z"></path>
    <path fill="#FFF"
          d="M1 29c0-1.1.9-2 2-2h6c1.1 0 2 .9 2 2v2c0 1.1-.9 2-2 2H3c-1.1 0-2-.9-2-2v-2zM13 17c0-1.1.9-2 2-2h6c1.1 0 2 .9 2 2v2c0 1.1-.9 2-2 2h-6c-1.1 0-2-.9-2-2v-2zM25 3c0-1.1.9-2 2-2h6c1.1 0 2 .9 2 2v2c0 1.1-.9 2-2 2h-6c-1.1 0-2-.9-2-2V3zM37 10c0-1.1.9-2 2-2h6c1.1 0 2 .9 2 2v2c0 1.1-.9 2-2 2h-6c-1.1 0-2-.9-2-2v-2z"
          opacity=".4"></path>
</svg>
