<svg xmlns="http://www.w3.org/2000/svg" width="48" height="48" viewBox="0 0 48 48">
    <path fill="url(#g9)"
          d="M95.521 14.403s-.469-3.308-1.908-4.765c-1.825-1.912-3.871-1.921-4.81-2.033-6.717-.485-16.792-.485-16.792-.485h-.021s-10.075 0-16.792.485c-.938.112-2.984.121-4.81 2.033-1.439 1.457-1.907 4.765-1.907 4.765S48 18.287 48 22.172v3.642c0 3.884.48 7.769.48 7.769s.468 3.308 1.907 4.765c1.825 1.911 4.225 1.851 5.292 2.051 3.842.368 16.321.481 16.321.481s10.086-.015 16.803-.501c.938-.111 2.984-.121 4.81-2.032 1.439-1.457 1.908-4.765 1.908-4.765S96 29.697 96 25.813v-3.642c0-3.884-.479-7.768-.479-7.768zM67.045 30.227l-.003-13.487 12.97 6.767-12.967 6.72z"></path>
    <path fill="url(#g10)"
          d="M41.584 21.939h-.776V9.521a2.335 2.335 0 0 0-2.329-2.329H26.061V5.64A4.67 4.67 0 0 0 21.404.983a4.67 4.67 0 0 0-4.656 4.657v1.552H4.328A2.334 2.334 0 0 0 2 9.521V21.94h1.552a4.67 4.67 0 0 1 4.657 4.656 4.67 4.67 0 0 1-4.657 4.657H2v12.419A2.334 2.334 0 0 0 4.328 46h12.419v-1.552a4.67 4.67 0 0 1 4.656-4.657 4.67 4.67 0 0 1 4.657 4.657V46h12.418a2.334 2.334 0 0 0 2.329-2.328V31.253h.776a4.67 4.67 0 0 0 4.657-4.657 4.668 4.668 0 0 0-4.656-4.657z"></path>
    <path d="M96-5c0 2.75-2.25 5-5 5H53c-2.75 0-5-2.25-5-5v-38c0-2.75 2.25-5 5-5h38c2.75 0 5 2.25 5 5v38z"
          opacity=".1"></path>
</svg>
