<svg xmlns="http://www.w3.org/2000/svg" width="48" height="48" viewBox="0 0 48 48">
    <path fill="#3580FA"
          d="M44 40c0 2.2-1.8 4-4 4H8c-2.2 0-4-1.8-4-4V8c0-2.2 1.8-4 4-4h32c2.2 0 4 1.8 4 4v32z"></path>
    <path fill="#FFF"
          d="M32.346 28.107a7.892 7.892 0 0 0-1.036-1.154 15.412 15.412 0 0 0-1.186-1.007c-.391-.299-.777-.59-1.11-.865-.318-.277-.604-.567-.812-.867a1.7 1.7 0 0 1-.295-.934c0-.434.16-.854.443-1.23.285-.382.629-.73 1.035-1.078.408-.363.852-.734 1.26-1.153.406-.424.749-.974 1.037-1.661.28-.696.369-1.49.369-2.379 0-1.058-.187-2.128-.67-3.102-.481-.974-1.194-1.693-2.067-2.234h2.515L34.344 9h-8.14c-1.148 0-2.321.117-3.48.359-1.713.374-3.12 1.265-4.294 2.598-1.17 1.321-1.775 2.787-1.775 4.472 0 1.778.691 3.29 1.999 4.468 1.32 1.179 2.901 1.732 4.739 1.732.369 0 .76-.013 1.254-.072-.023.096-.011.191-.069.359-.068.155-.113.338-.15.434-.036.095-.124.213-.15.36-.024.131 0 .218 0 .362 0 .793.396 1.742 1.184 2.738-.933.025-1.899.073-2.81.214-.914.135-1.888.353-2.888.652a8.619 8.619 0 0 0-2.664 1.296c-.788.555-1.38 1.182-1.775 1.95-.456.89-.667 1.718-.667 2.448 0 .808.149 1.517.52 2.166a5.129 5.129 0 0 0 1.479 1.658c.58.42 1.246.731 1.999 1.01.768.289 1.481.527 2.222.65.749.121 1.487.146 2.218.146 3.303 0 5.894-.806 7.769-2.382 1.728-1.465 2.593-3.122 2.593-5.048 0-.687-.086-1.355-.298-1.945a4.847 4.847 0 0 0-.814-1.518zm-7.105-6.56c-.629 0-1.21-.121-1.775-.431a4.972 4.972 0 0 1-1.479-1.229c-.396-.504-.74-1.104-1.037-1.73a9.596 9.596 0 0 1-.669-1.871c-.133-.628-.223-1.171-.223-1.735 0-1.153.334-2.197.964-3.025.629-.83 1.52-1.229 2.666-1.229.812 0 1.565.227 2.219.723a5.056 5.056 0 0 1 1.555 1.875c.383.756.692 1.561.889 2.379.212.806.294 1.587.294 2.307 0 1.204-.269 2.153-.812 2.886-.53.721-1.395 1.08-2.592 1.08zm5.108 13.557a3.332 3.332 0 0 1-1.335 1.297 7.103 7.103 0 0 1-1.921.723c-.657.155-1.346.215-2.073.215-.79 0-1.595-.107-2.369-.289-.778-.179-1.504-.418-2.22-.795a4.52 4.52 0 0 1-1.704-1.512 3.758 3.758 0 0 1-.664-2.161c0-.723.182-1.384.518-1.95.333-.563.74-1.03 1.258-1.367.519-.337 1.16-.579 1.85-.793.693-.216 1.358-.423 2-.508.642-.082 1.258-.067 1.924-.067.203 0 .392-.009.555-.013s.303 0 .406.013c.072.045.224.152.521.359.306.201.49.356.59.43.112.073.318.229.591.434.286.204.481.324.593.431.123.098.298.3.519.506s.422.35.521.506c.11.144.218.359.368.576.157.215.31.373.371.576.062.192.098.409.146.65.064.229.074.467.074.723-.004.754-.175 1.451-.519 2.016z"></path>
</svg>
