<svg xmlns="http://www.w3.org/2000/svg" width="48" height="48" viewBox="0 0 48 48">
    <path d="M43.499 30.44S48 30.957 48 35.845c0 2.359-1.318 5.151-4.501 5.151H17.738c-4.945 0-6.726-3.386-6.726-6.86 0-5.832 6.495-6.039 6.495-6.039s.532-6.382 6.205-7.674c5.062-1.152 7.909 1.503 9.284 3.55 0 0 3.081-1.768 6.57-.228 2.08.916 4.123 3.103 3.933 6.693zM9.374 34.357c0-6.5 6.864-7.466 6.864-7.466s.877-6.232 7.106-7.833c4.825-1.238 8.484.93 10.044 3.35 0 0 1.046-.74 3.368-.68-.236-2.136-1.718-6.615-6.598-8.51-5.522-2.144-10.356.53-12.61 4.593 0 0-3.414-2.2-7.484-.128-2.86 1.457-4.647 4.881-4.274 8.184 0 0-5.79.425-5.79 6.646 0 3.422 3.078 6.442 6.378 6.442h4.309c-1.05-1.605-1.313-3.265-1.313-4.598z"
          fill="#084AB2" fill-rule="evenodd"></path>
</svg>
