<svg xmlns="http://www.w3.org/2000/svg" width="24" height="24" viewBox="0 0 24 24">
    <g fill="#000" fill-rule="evenodd">
        <path d="M19 19H5v-2.99a1 1 0 0 0-2-.019v4.018c0 .547.449.991 1.007.991H20.01c.54 0 .991-.444.991-.99v-4.02a1 1 0 0 0-2 .02V19z"/>
        <path d="M11.999 2.001a1 1 0 0 0-1 .994v9.176L8.118 9.3a.999.999 0 0 0-1.414-.003c-.39.39-.383 1.028.007 1.417l5.288 5.288 5.288-5.288a1 1 0 0 0 .007-1.417 1.002 1.002 0 0 0-1.415.003L13 12.17V2.995a.994.994 0 0 0-1-.994z"/>
    </g>
</svg>
