<svg xmlns="http://www.w3.org/2000/svg" width="24" height="24" viewBox="0 0 24 24">
    <g fill="#58AFE1" fill-rule="nonzero">
        <path d="M23.761.727A.566.566 0 0 0 23.31.5a.545.545 0 0 0-.26.066c-3.315 1.815-7.159 2.775-11.114 2.776C7.979 3.34 4.136 2.38.82.566A.544.544 0 0 0 .561.5a.566.566 0 0 0-.452.227.553.553 0 0 0 .105.767 19.533 19.533 0 0 0 11.72 3.9h.002a19.53 19.53 0 0 0 11.722-3.902.553.553 0 0 0 .103-.765M19.707 6.094a.446.446 0 0 0-.429-.062c-.96.368-1.937.647-2.827.854a.556.556 0 0 0-.39.34c-.648 1.777-2.305 3.47-4.044 5.242-.07.066-.167.154-.326.154-.16 0-.256-.085-.327-.154-1.738-1.773-3.395-3.46-4.044-5.237a.557.557 0 0 0-.39-.339 21.978 21.978 0 0 1-2.828-.863.446.446 0 0 0-.427.061.444.444 0 0 0-.173.393c.147 1.478.731 2.923 1.785 4.437.991 1.424 2.283 2.742 3.533 4.016 2.302 2.348 4.477 4.566 4.668 7.138.017.232.21.411.443.411h2.705a.446.446 0 0 0 .444-.466c-.085-1.72-.732-3.442-1.978-5.264-.261-.382-.54-.754-.833-1.117a.323.323 0 0 1 .022-.425l.27-.277c1.25-1.275 2.542-2.592 3.533-4.016 1.054-1.514 1.638-2.95 1.785-4.428a.456.456 0 0 0-.172-.398M8.99 16.635a.412.412 0 0 0-.316-.135.445.445 0 0 0-.367.209C7.169 18.44 6.582 20.074 6.5 21.716a.45.45 0 0 0 .122.33.45.45 0 0 0 .323.138h2.7a.448.448 0 0 0 .446-.413c.059-.791.305-1.585.753-2.418a.627.627 0 0 0-.054-.676c-.445-.578-.99-1.196-1.801-2.042"/>
        <path d="M11.926 7.551c.848 0 1.34-.051 1.512-.051a.413.413 0 0 1 .376.576c-.112.3-.624 1.382-1.578 2.31a.435.435 0 0 1-.312.123h-.001a.434.434 0 0 1-.311-.124c-.954-.927-1.467-2.009-1.579-2.31a.413.413 0 0 1 .376-.576c.173.001.664.052 1.512.052h.005"/>
    </g>
</svg>
