<svg xmlns="http://www.w3.org/2000/svg" width="24" height="24" viewBox="0 0 24 24">
    <g fill="#000" fill-rule="evenodd">
        <path d="M12.252 10.571c-.43 0-.84.09-1.213.247a1.295 1.295 0 1 1-1.65 1.651 3.109 3.109 0 1 0 2.864-1.898"/>
        <path d="M12 18.579c-3.626 0-6.564-2.54-6.564-5.676 0-.334.035-.662.1-.98 1.361-1.397 3.746-2.324 6.463-2.324 2.716 0 5.1.927 6.462 2.324.065.318.1.646.1.98 0 3.135-2.938 5.676-6.562 5.676M12 2C7.476 3.807 4.152 8.181 4.056 13.178a7.895 7.895 0 0 0 1.063 4.191 7.913 7.913 0 0 0 1.665 2.025 6.61 6.61 0 0 1-3.048-2.745 6.54 6.54 0 0 1-.813-2.199.483.483 0 0 0-.043-.132.29.29 0 0 0-.251-.157.298.298 0 0 0-.146.04.37.37 0 0 0-.173.25c-.57 2.53-.183 4.646-.183 4.646a12.878 12.878 0 0 0 7.915 2.747c2.039 0 4.083-.502 5.927-1.566a7.928 7.928 0 0 0 3.827-5.368v.004a6.602 6.602 0 0 1-.853 4.014 6.543 6.543 0 0 1-1.498 1.802l-.093.104c-.084.148-.046.319.098.402a.342.342 0 0 0 .175.046.419.419 0 0 0 .127-.02c2.475-.773 4.117-2.166 4.117-2.166.693-4.804-1.418-9.856-5.673-12.443a7.973 7.973 0 0 0-4.205-1.2 7.89 7.89 0 0 0-2.582.434l.002-.002a6.609 6.609 0 0 1 3.903-1.268c.814 0 1.589.127 2.31.397a.545.545 0 0 0 .136.028c.171 0 .297-.118.299-.286a.373.373 0 0 0-.129-.276C14.024 2.725 11.998 2 11.998 2"/>
    </g>
</svg>
